<?xml version="1.0" encoding="UTF-8" standalone="no"?>
<!-- Created with Inkscape (http://www.inkscape.org/) -->

<svg
   xmlns:dc="http://purl.org/dc/elements/1.1/"
   xmlns:cc="http://creativecommons.org/ns#"
   xmlns:rdf="http://www.w3.org/1999/02/22-rdf-syntax-ns#"
   xmlns:svg="http://www.w3.org/2000/svg"
   xmlns="http://www.w3.org/2000/svg"
   xmlns:sodipodi="http://sodipodi.sourceforge.net/DTD/sodipodi-0.dtd"
   xmlns:inkscape="http://www.inkscape.org/namespaces/inkscape"
   width="210.04326mm"
   height="102.68046mm"
   viewBox="0 0 210.04326 102.68046"
   version="1.1"
   id="svg8"
   inkscape:version="0.92.5 (2060ec1f9f, 2020-04-08)"
   sodipodi:docname="rysunek.svg">
  <defs
     id="defs2" />
  <sodipodi:namedview
     id="base"
     pagecolor="#ffffff"
     bordercolor="#666666"
     borderopacity="1.0"
     inkscape:pageopacity="0.0"
     inkscape:pageshadow="2"
     inkscape:zoom="0.5157041"
     inkscape:cx="803.5742"
     inkscape:cy="129.39644"
     inkscape:document-units="mm"
     inkscape:current-layer="layer1"
     showgrid="false"
     inkscape:window-width="1366"
     inkscape:window-height="705"
     inkscape:window-x="-8"
     inkscape:window-y="-8"
     inkscape:window-maximized="1"
     fit-margin-top="0"
     fit-margin-left="0"
     fit-margin-right="0"
     fit-margin-bottom="0" />
  <metadata
     id="metadata5">
    <rdf:RDF>
      <cc:Work
         rdf:about="">
        <dc:format>image/svg+xml</dc:format>
        <dc:type
           rdf:resource="http://purl.org/dc/dcmitype/StillImage" />
        <dc:title></dc:title>
      </cc:Work>
    </rdf:RDF>
  </metadata>
  <g
     inkscape:label="Layer 1"
     inkscape:groupmode="layer"
     id="layer1"
     transform="translate(-0.15416454,0.02623826)">
    <rect
       style="fill:#000080;stroke-width:0.27216166"
       id="rect3723"
       width="210.04326"
       height="102.68046"
       x="0.15416454"
       y="-0.026238261"
       inkscape:export-xdpi="265.94458"
       inkscape:export-ydpi="265.94458" />
    <path
       style="fill:#00ffff;stroke-width:0.29058149"
       id="path3729"
       d="m 45.319305,32.885493 c 0.144361,-2.846251 -1.130438,-5.124977 -2.638521,-7.410665 -2.266547,-2.567962 -5.219219,-4.088471 -8.432338,-5.113003 -2.355425,-0.675909 -4.796563,-0.830447 -7.232071,-0.862195 -1.851601,-0.09569 -3.636971,0.06232 -5.402611,0.630041 -3.758975,1.926908 -9.402435,5.103806 7.799036,-4.51992 0.319529,-0.178768 -0.606569,0.410353 -0.905202,0.622188 -0.889816,0.631177 -0.821767,0.598458 -1.652305,1.275803 -1.567498,1.404195 -2.43781,3.247813 -3.083287,5.210156 -0.40986,1.645196 -0.90486,3.412552 0.179308,4.864117 1.274145,1.369819 2.807657,2.463674 4.271822,3.62121 2.016255,1.465608 4.200617,2.701068 6.37822,3.911758 1.498774,1.012322 3.045016,1.945045 4.44044,3.09886 1.336482,0.958919 2.640036,1.882451 3.737643,3.119297 1.204371,1.474738 2.1658,3.151586 3.124359,4.797344 1.235494,2.281579 2.593617,4.490751 3.580071,6.895494 0.698294,1.802227 0.891978,3.715741 0.979481,5.628828 0.150452,1.811026 -0.09534,3.557435 -0.638562,5.279953 -0.412329,1.523551 -0.943149,3.004066 -1.466831,4.49162 -0.648732,1.783936 -1.209116,3.604312 -1.953766,5.351023 -3.143808,5.364246 -10.189482,7.810745 -15.038465,10.617794 -1.927299,0.622568 -3.954641,0.721331 -5.962796,0.772113 -1.754026,0.01935 -3.508337,0.004 -5.262313,-0.01522 -2.267268,-0.151329 -3.996652,-1.368648 -5.808822,-2.589427 -1.059461,-0.874145 -0.569248,-0.408314 -1.475672,-1.392173 0,0 10.488408,-6.380918 10.488408,-6.380918 v 0 c 0.784158,0.818955 0.353466,0.423395 1.302747,1.174964 1.664465,1.120444 3.347586,2.032737 5.42493,1.98004 1.743963,-2.3e-5 3.488724,0.03235 5.23199,-0.03187 1.923449,-0.106761 3.881304,-0.278144 5.608235,-1.211805 -18.352884,10.729911 -8.784928,6.088502 -5.671919,2.158003 0.86546,-1.656157 1.354011,-3.474375 1.986084,-5.226553 0.52103,-1.48701 1.092853,-2.943391 1.476991,-4.470855 0.554557,-1.604252 1.036464,-3.159386 0.830618,-4.889337 -0.04371,-1.785991 -0.140341,-3.583648 -0.731701,-5.287947 -0.897278,-2.37358 -2.214955,-4.5315 -3.499944,-6.712043 -0.952576,-1.554678 -1.831576,-3.189193 -3.037946,-4.562023 -1.079948,-1.149502 -2.39522,-1.988676 -3.632135,-2.958523 -1.374814,-1.062898 -2.83471,-2.01235 -4.279306,-2.976473 C 22.157046,40.48014 19.913819,39.24491 17.859468,37.729342 16.29231,36.518479 14.67338,35.336159 13.365242,33.837141 11.922229,31.783968 12.254663,30.331386 12.72307,27.966593 c 0.517004,-2.111325 1.314995,-4.170406 2.805702,-5.795961 0.702457,-0.780965 1.565066,-1.575217 2.474336,-2.119435 3.899996,-2.334236 8.546702,-5.86631 13.345401,-7.378255 1.856801,-0.373986 3.720044,-0.472506 5.612915,-0.350961 2.4846,0.124072 4.959082,0.436878 7.32591,1.2447 3.367648,1.251125 6.532705,2.978925 8.890289,5.760775 1.636433,2.455661 2.966401,4.949196 3.099812,7.974609 0,0 -10.95813,5.583445 -10.95813,5.583445 z"
       inkscape:connector-curvature="0"
       inkscape:export-xdpi="265.94458"
       inkscape:export-ydpi="265.94458" />
    <path
       style="fill:#00ffff;stroke-width:0.29058149"
       id="path3733"
       d="m 53.269109,78.43371 c 1.168987,0.939299 2.567904,1.420319 4.017975,1.710331 0.587922,0.114806 1.181967,0.15692 1.712258,-0.179585 0.145805,-0.09252 0.537997,-0.428199 0.387034,-0.344351 -7.174818,3.985026 -9.233454,6.245448 -6.989342,3.852196 0.552674,-0.928191 0.446688,-1.887604 -0.516518,-2.414936 -1.029868,-0.338043 -2.108197,-0.468023 -3.096323,0.02284 2.437406,-1.365736 4.874816,-2.731469 7.312223,-4.097203 -0.190954,0.145907 -1.039199,0.594083 -0.444945,0.736683 0.548998,0.06323 1.175902,0.291816 1.713451,0.0516 0.129606,-0.05792 0.467401,-0.321003 0.343387,-0.251911 -2.477312,1.380169 -4.937349,2.79112 -7.406025,4.186681 0.754858,-0.578623 0.568444,-0.680804 -0.195757,-0.828896 -0.721217,-0.121661 -1.447857,-0.161101 -2.110234,0.210785 -0.166326,0.09339 -0.625233,0.435132 -0.458689,0.34214 2.429047,-1.35629 4.833487,-2.756189 7.250229,-4.134281 -0.410051,0.05399 -1.214031,1.63086 -0.432143,1.484328 0.417065,-0.250969 0.209724,-0.100381 0.612258,-0.464904 0,0 -7.086819,5.559524 -7.086819,5.559524 v 0 c -0.705226,0.04713 -0.350658,0.08474 -1.061442,-0.132456 -1.064211,-0.856628 -1.064614,-1.93603 -0.360437,-3.071152 3.229677,-1.937914 6.905769,-6.097048 11.11381,-4.834039 1.039062,0.502974 1.659415,1.369435 1.093607,2.51279 -2.992385,1.748475 -6.786871,6.246441 -10.62599,4.219048 -3.473299,-3.200456 6.95709,-6.373275 7.858291,-6.976598 1.230119,-0.161391 2.48267,-0.0064 3.565982,0.633463 1.138693,0.92864 1.570282,2.165361 1.160251,3.612232 -1.426625,3.408749 -0.151164,0.654829 -8.24449,5.420447 -0.717425,0.422442 -1.717586,0.09969 -2.457119,-0.02154 -1.53998,-0.417966 -2.994468,-1.050626 -4.278958,-2.01411 0,0 7.624475,-4.789135 7.624475,-4.789135 z"
       inkscape:connector-curvature="0"
       inkscape:export-xdpi="265.94458"
       inkscape:export-ydpi="265.94458" />
    <path
       style="fill:#00ffff;stroke-width:0.29058149"
       id="path3739"
       d="m 63.958865,85.048456 c 0.638832,-1.707565 0.856806,-3.524168 1.024937,-5.327444 0.139083,-1.774252 0.140304,-3.555194 0.138176,-5.333693 -0.0032,-1.307071 -0.01825,-2.614103 -0.0096,-3.921168 0.01275,-1.588206 0.0087,-3.176541 0.0077,-4.764799 -0.0044,-1.401815 -0.01087,-2.803621 -0.01427,-4.205438 -0.123236,-1.354354 0.160883,-2.619078 0.576566,-3.894066 0.46172,-1.286749 0.496865,-2.657573 0.662543,-3.999203 0.238464,-1.398856 0.41265,-2.805071 0.507583,-4.220667 0.06888,-1.227955 0.07112,-2.458253 0.07394,-3.68773 2.91e-4,-1.210612 -0.0021,-2.421223 -0.0033,-3.631836 -0.06393,-1.248829 0.03538,-2.47388 0.240537,-3.703865 0.21569,-1.183297 0.293049,-2.383309 0.337903,-3.583175 0.06183,-1.369846 -0.006,-2.742425 0.0884,-4.110171 0.127186,-1.491293 0.748961,-2.865166 1.382959,-4.200283 0.600537,-1.268915 1.446538,-2.422555 2.408029,-3.440808 2.900922,-2.370479 6.746879,-4.085454 9.809513,-5.713028 0.259742,-0.138034 0.571477,-0.141746 0.851126,-0.232935 0.478832,-0.156141 0.942755,-0.355225 1.419398,-0.517921 1.383721,-0.437901 2.822454,-0.519735 4.257055,-0.377198 1.810241,0.0871 3.201424,0.704965 4.790561,1.463932 1.207555,0.736706 2.39511,1.5522 3.294846,2.653791 0.911974,1.142633 1.460237,2.480104 1.825178,3.881527 0.311236,1.39271 0.31262,2.826864 0.33341,4.246538 0.09599,1.428882 -0.02559,2.791277 -0.403018,4.168784 -0.493558,1.580452 -1.194809,3.089965 -1.945685,4.56281 -0.591907,1.290353 -1.422833,2.406227 -2.3937,3.431692 -3.280896,2.818234 -7.247406,4.811806 -11.134614,6.646715 -1.184515,0.527954 -2.467061,0.669444 -3.746319,0.747757 -1.220858,0.05119 -2.443226,0.03937 -3.664832,0.03513 -1.212573,-0.0053 -2.425158,-0.0078 -3.637743,-0.0092 -1.046341,-0.257409 -2.098806,-0.442436 -3.17231,-0.532202 0,0 7.32469,-5.206657 7.32469,-5.206657 v 0 c 1.042418,0.128753 2.062987,0.392822 3.110249,0.463904 1.212611,0.0021 2.425214,0.0064 3.637822,0.0093 1.205866,-1.48e-4 2.414302,0.0069 3.616574,-0.09977 1.23283,-0.143893 2.435622,-0.412262 3.546847,-0.989435 3.115499,-1.44265 0.45211,-0.232007 -6.486416,3.837768 -1.268115,0.743812 3.639784,-1.954321 2.318998,-1.502135 1.045919,-0.864792 1.954954,-1.935665 2.501136,-3.187194 0.865546,-1.35085 1.46724,-2.876379 2.042408,-4.368269 0.386009,-1.3085 0.647122,-2.555173 0.509146,-3.935211 -0.0056,-1.356138 -0.0014,-2.722467 -0.241596,-4.06197 C 89.45139,27.149475 88.96992,25.943597 88.103246,24.920913 87.267882,23.930343 86.16663,23.202099 85.039932,22.578866 83.59567,21.884 82.095613,21.41508 80.472625,21.393438 c -1.392482,0.0063 -2.76574,0.169114 -4.076283,0.668973 -0.46824,0.165006 -0.940679,0.31799 -1.408294,0.484754 -0.267391,0.09536 -1.039298,0.44767 -0.797429,0.29904 12.132051,-7.455296 8.150767,-4.780298 5.481248,-3.213866 -1.065188,0.833338 -1.836586,1.978782 -2.55923,3.112145 -0.555182,1.286054 -1.320022,2.518836 -1.495838,3.93706 -0.19766,1.337317 -0.04516,2.696054 -0.104577,4.044067 -0.03216,1.234544 -0.08425,2.471529 -0.28545,3.692254 -0.201358,1.189353 -0.414682,2.353306 -0.306058,3.568607 0.0012,1.211327 0.0032,2.422655 0.0041,3.633984 -0.0012,1.246929 -2.91e-4,2.494494 -0.05797,3.740389 -0.08234,1.438898 -0.234669,2.871448 -0.494021,4.29023 -0.214344,1.372675 -0.16759,2.788147 -0.571995,4.129834 -0.390162,1.210511 -0.88313,2.332144 -0.703033,3.642901 -0.0034,1.40658 -0.01,2.813152 -0.01409,4.21973 -5.82e-4,1.584264 -0.0041,3.168651 0.01287,4.752832 0.01308,1.310325 0.0075,2.620769 0.0012,3.931126 -0.01668,1.807234 -0.05157,3.614637 -0.150774,5.419508 -0.137256,1.842395 -0.349299,3.686495 -0.837282,5.473489 0,0 -8.150793,3.827918 -8.150793,3.827918 z"
       inkscape:connector-curvature="0"
       inkscape:export-xdpi="265.94458"
       inkscape:export-ydpi="265.94458" />
    <path
       style="fill:#00ffff;stroke-width:0.29058149"
       id="path3733-0"
       d="m 89.613949,78.755985 c 1.168987,0.939298 2.567904,1.420325 4.017975,1.710332 0.587922,0.114812 1.181967,0.15692 1.712258,-0.179587 0.145805,-0.09247 0.538001,-0.428201 0.387034,-0.344349 -7.174818,3.985028 -9.233454,6.245447 -6.989342,3.852194 0.552674,-0.928184 0.446688,-1.887603 -0.516518,-2.414933 -1.029868,-0.338045 -2.108197,-0.468024 -3.096323,0.02284 2.437406,-1.365732 4.874816,-2.731463 7.312223,-4.097205 -0.190954,0.145915 -1.039199,0.594082 -0.444945,0.736691 0.548998,0.06326 1.175902,0.291808 1.713451,0.05162 0.129606,-0.05788 0.467401,-0.321011 0.343387,-0.25192 -2.477312,1.380174 -4.937349,2.791121 -7.406026,4.186681 0.754859,-0.578619 0.568445,-0.680801 -0.195756,-0.828902 -0.721217,-0.121654 -1.447857,-0.161093 -2.110234,0.210789 -0.166327,0.09335 -0.625233,0.435131 -0.458689,0.342142 2.429047,-1.356287 4.833487,-2.756185 7.250229,-4.134283 -0.410051,0.05403 -1.214031,1.630863 -0.432143,1.484333 0.417065,-0.250975 0.209724,-0.100381 0.612258,-0.464905 0,0 -7.086819,5.559517 -7.086819,5.559517 v 0 c -0.705226,0.04712 -0.350658,0.08479 -1.061442,-0.13245 -1.064211,-0.856621 -1.064614,-1.936025 -0.360437,-3.071155 3.229677,-1.937914 6.905769,-6.09705 11.11381,-4.834039 1.039062,0.502982 1.659415,1.369444 1.093607,2.512788 -2.992386,1.748475 -6.786871,6.246447 -10.62599,4.219057 -3.473299,-3.200464 6.95709,-6.373273 7.858291,-6.976603 1.230119,-0.161389 2.48267,-0.0066 3.565982,0.633466 1.138694,0.928634 1.570289,2.165364 1.160253,3.612235 -1.426627,3.408749 -0.151165,0.654827 -8.244492,5.420444 -0.717425,0.422446 -1.717586,0.09972 -2.457119,-0.02153 -1.53998,-0.417965 -2.994468,-1.050629 -4.278958,-2.014111 0,0 7.624475,-4.789131 7.624475,-4.789131 z"
       inkscape:connector-curvature="0"
       inkscape:export-xdpi="265.94458"
       inkscape:export-ydpi="265.94458" />
    <path
       style="fill:#00ffff;stroke-width:0.29058149"
       id="path3739-3"
       d="m 100.30373,85.370733 c 0.63883,-1.707565 0.85682,-3.524165 1.02494,-5.327444 0.13908,-1.774251 0.1403,-3.555191 0.13818,-5.333693 -0.003,-1.307073 -0.0182,-2.614102 -0.01,-3.921164 0.0127,-1.588206 0.009,-3.176544 0.008,-4.764805 -0.004,-1.401809 -0.011,-2.803619 -0.0143,-4.205439 -0.12324,-1.354349 0.16088,-2.619073 0.57656,-3.89406 0.46172,-1.28675 0.49688,-2.657575 0.66255,-3.999208 0.23846,-1.398853 0.41265,-2.805066 0.50758,-4.220663 0.0689,-1.227958 0.0712,-2.458254 0.0739,-3.687731 2.9e-4,-1.210611 -0.002,-2.421224 -0.003,-3.631837 -0.0639,-1.24883 0.0354,-2.473879 0.24054,-3.703865 0.21569,-1.183297 0.29305,-2.383309 0.3379,-3.583175 0.0618,-1.369846 -0.007,-2.742425 0.0884,-4.110171 0.12719,-1.491293 0.74897,-2.865166 1.38298,-4.200283 0.60054,-1.268915 1.44654,-2.422555 2.40803,-3.440808 2.90091,-2.370479 6.74687,-4.085454 9.8095,-5.713028 0.25975,-0.138035 0.57148,-0.141746 0.85113,-0.232935 0.47883,-0.156141 0.94276,-0.355225 1.4194,-0.517921 1.38372,-0.437901 2.82246,-0.519735 4.25706,-0.377198 1.81024,0.0871 3.20142,0.704965 4.79056,1.463932 1.20755,0.736706 2.39511,1.5522 3.29485,2.653791 0.91197,1.142633 1.46023,2.480104 1.82516,3.881527 0.31124,1.39271 0.31264,2.826864 0.33343,4.246537 0.096,1.428883 -0.0256,2.791278 -0.40302,4.168785 -0.49356,1.580452 -1.19481,3.089965 -1.94569,4.56281 -0.59191,1.290353 -1.42283,2.406227 -2.39371,3.431692 -3.28089,2.818234 -7.2474,4.811808 -11.1346,6.646716 -1.18452,0.527952 -2.46707,0.669442 -3.74633,0.747757 -1.22085,0.05119 -2.44322,0.03937 -3.66483,0.03513 -1.21257,-0.0053 -2.42515,-0.0078 -3.63774,-0.0092 -1.04633,-0.257412 -2.09881,-0.442437 -3.17231,-0.532203 0,0 7.32469,-5.206659 7.32469,-5.206659 v 0 c 1.04241,0.128754 2.06298,0.392823 3.11025,0.463905 1.21261,0.0021 2.42521,0.0064 3.63781,0.0093 1.20587,-1.48e-4 2.41431,0.0069 3.61659,-0.09977 1.23283,-0.143893 2.43561,-0.412262 3.54684,-0.989435 3.11551,-1.442651 0.45211,-0.232007 -6.48641,3.837767 -1.26812,0.743812 3.63978,-1.95432 2.319,-1.502134 1.04591,-0.864792 1.95494,-1.935665 2.50113,-3.187194 0.86554,-1.35085 1.46723,-2.876379 2.0424,-4.368269 0.38601,-1.3085 0.64713,-2.555173 0.50915,-3.935211 -0.005,-1.356138 -10e-4,-2.722467 -0.2416,-4.06197 -0.29229,-1.291145 -0.77377,-2.497023 -1.64044,-3.519707 -0.83537,-0.99057 -1.93662,-1.718814 -3.06331,-2.342047 -1.44431,-0.694882 -2.94437,-1.163802 -4.56736,-1.185444 -1.39247,0.0063 -2.76574,0.169114 -4.07628,0.668974 -0.46824,0.165006 -0.94067,0.317989 -1.40829,0.484753 -0.2674,0.09536 -1.0393,0.44767 -0.79743,0.29904 12.13205,-7.455309 8.15077,-4.780311 5.48125,-3.213879 -1.0652,0.833338 -1.83659,1.978782 -2.55924,3.112145 -0.55518,1.286054 -1.32002,2.518836 -1.49583,3.93706 -0.19766,1.337317 -0.0451,2.696054 -0.10455,4.044067 -0.0322,1.234544 -0.0842,2.471529 -0.28545,3.692254 -0.20137,1.189353 -0.41469,2.353306 -0.30606,3.568607 0.001,1.211327 0.003,2.422656 0.004,3.633984 -0.001,1.246929 -2.9e-4,2.494494 -0.058,3.740389 -0.0824,1.438899 -0.23467,2.871449 -0.49402,4.290231 -0.21435,1.372674 -0.16759,2.788147 -0.572,4.129834 -0.39015,1.21051 -0.88312,2.332144 -0.70302,3.642902 -0.003,1.40658 -0.01,2.813151 -0.0141,4.219728 -5.8e-4,1.584263 -0.004,3.168647 0.0129,4.752833 0.0131,1.310324 0.008,2.620769 0.001,3.931126 -0.0167,1.807232 -0.0516,3.61464 -0.15078,5.419511 -0.13725,1.842388 -0.3493,3.686488 -0.83728,5.473491 0,0 -8.15082,3.827911 -8.15082,3.827911 z"
       inkscape:connector-curvature="0"
       inkscape:export-xdpi="265.94458"
       inkscape:export-ydpi="265.94458" />
    <path
       style="fill:#00ffff;stroke-width:0.29058149"
       id="path3733-0-3"
       d="m 123.11978,76.651793 c 1.16899,0.939298 2.56791,1.420325 4.01798,1.710332 0.58792,0.114812 1.18197,0.15692 1.71227,-0.179587 0.1458,-0.09247 0.53799,-0.428201 0.38702,-0.344349 -7.17481,3.985028 -9.23345,6.245447 -6.98934,3.852194 0.55268,-0.928184 0.4467,-1.887603 -0.51651,-2.414933 -1.02987,-0.338045 -2.1082,-0.468024 -3.09633,0.02284 2.4374,-1.365732 4.87482,-2.731463 7.31222,-4.097205 -0.19095,0.145915 -1.0392,0.594082 -0.44494,0.736691 0.549,0.06326 1.1759,0.291808 1.71345,0.05162 0.12961,-0.05788 0.4674,-0.32101 0.34339,-0.251919 -2.47732,1.380174 -4.93736,2.791121 -7.40603,4.186681 0.75486,-0.578619 0.56845,-0.680801 -0.19575,-0.828902 -0.72122,-0.121654 -1.44786,-0.161093 -2.11024,0.210789 -0.16632,0.09335 -0.62523,0.435131 -0.45869,0.342142 2.42905,-1.356287 4.83349,-2.756185 7.25023,-4.134283 -0.41004,0.05403 -1.21403,1.630863 -0.43214,1.484333 0.41706,-0.250975 0.20972,-0.100381 0.61226,-0.464905 0,0 -7.08683,5.559517 -7.08683,5.559517 v 0 c -0.70522,0.04712 -0.35065,0.08479 -1.06143,-0.13245 -1.06422,-0.856621 -1.06461,-1.936025 -0.36044,-3.071155 3.22968,-1.937914 6.90576,-6.09705 11.11381,-4.834039 1.03906,0.502982 1.65941,1.369444 1.09361,2.512788 -2.99239,1.748475 -6.78688,6.246447 -10.62599,4.219057 -3.47331,-3.200464 6.95709,-6.373273 7.85829,-6.976603 1.23011,-0.161389 2.48267,-0.0066 3.56598,0.633466 1.13869,0.928634 1.57029,2.165364 1.16025,3.612235 -1.42662,3.408749 -0.15116,0.654827 -8.24449,5.420444 -0.71743,0.422446 -1.71758,0.09972 -2.45712,-0.02153 -1.53998,-0.417965 -2.99447,-1.050629 -4.27895,-2.014111 0,0 7.62446,-4.789132 7.62446,-4.789132 z"
       inkscape:connector-curvature="0"
       inkscape:export-xdpi="265.94458"
       inkscape:export-ydpi="265.94458" />
    <path
       style="fill:#00ffff;stroke-width:0.29058149"
       id="path3774"
       d="m 142.71192,83.739836 c 0.0869,-2.501567 0.065,-5.005633 0.0469,-7.508223 -0.0219,-1.801855 -0.0259,-3.603817 -0.0372,-5.405757 0.005,-1.472127 -0.003,-2.944262 -0.008,-4.416377 0.005,-1.505933 0.0115,-3.011886 0.009,-4.517834 -0.006,-1.35003 -0.01,-2.70006 -0.0121,-4.050099 -0.001,-1.342437 0.008,-2.684784 0.006,-4.027236 -0.003,-1.287378 -0.006,-2.574755 -0.007,-3.862138 -0.005,-1.309001 0.008,-2.617911 0.008,-3.926899 -0.002,-1.314303 -0.005,-2.628601 -0.008,-3.942904 -0.001,-1.220158 -0.001,-2.440318 -0.002,-3.660476 0.0121,-1.292332 0.0356,-2.575051 -0.13421,-3.857943 -0.12612,-1.332548 -0.49395,-2.618424 -0.75618,-3.926078 -0.2324,-1.229055 -0.28334,-2.480204 -0.31429,-3.727409 -0.0201,-1.214282 -0.0145,-2.428802 -0.0124,-3.643195 0,0 7.99858,-4.073662 7.99858,-4.073662 v 0 c -0.002,1.208523 -0.008,2.417092 0.003,3.625586 0.0187,1.201426 0.0449,2.407375 0.23883,3.595984 0.2413,1.328449 0.64175,2.622277 0.76309,3.971628 0.1978,1.317642 0.26307,2.626673 0.21105,3.959977 -1e-4,1.22073 -2.4e-4,2.44146 -0.002,3.662187 -0.002,1.316732 -0.005,2.633459 -0.008,3.950188 2.5e-4,1.306346 0.0135,2.612608 0.008,3.918963 -0.001,1.28968 -0.003,2.579359 -0.007,3.869035 -0.002,1.340459 0.008,2.680809 0.005,4.021253 -0.002,1.354131 -0.007,2.708252 -0.0121,4.062373 -0.003,1.503103 0.002,3.006209 0.009,4.509296 -0.004,1.474893 -0.0141,2.949804 -0.008,4.424709 -0.0113,1.814591 -0.0155,3.629206 -0.0372,5.443713 -0.0178,2.486622 -0.041,4.974808 0.047,7.460366 0,0 -7.98972,4.070972 -7.98972,4.070972 z"
       inkscape:connector-curvature="0"
       inkscape:export-xdpi="265.94458"
       inkscape:export-ydpi="265.94458" />
    <path
       style="fill:#00ffff;stroke-width:0.29058149"
       id="path3780"
       d="m 142.25069,51.023557 c 1.16296,-1.381032 2.3179,-2.769042 3.45793,-4.169183 1.03483,-1.385702 1.85789,-2.911205 2.72125,-4.405163 0.74549,-1.202862 1.50654,-2.395063 2.2513,-3.598748 0.67117,-1.103352 1.45274,-2.132577 2.17723,-3.200147 0.82601,-1.041741 1.38364,-2.2502 2.11946,-3.349973 0.67766,-0.972212 1.45851,-1.867117 2.21475,-2.778115 0.93384,-1.162262 1.91579,-2.285052 2.86416,-3.435394 0.81346,-0.943513 1.56046,-1.940748 2.35017,-2.90212 2.7259,-2.833916 6.70558,-4.354282 9.99428,-6.229016 1.10168,-0.524436 2.21314,-1.030733 3.36342,-1.446503 0,0 -7.04091,5.526724 -7.04091,5.526724 v 0 c -1.13631,0.476147 -2.25696,0.988324 -3.36233,1.532481 16.81861,-9.761837 7.12368,-4.635592 5.34653,-2.826585 -0.50402,0.416472 -0.71608,0.834936 -1.10936,1.338339 -0.40261,0.515326 -0.91807,0.967491 -1.32341,1.48579 -0.88499,1.186253 -1.89452,2.284639 -2.84415,3.417562 -0.67842,0.951919 -1.48381,1.819955 -2.23004,2.716475 -0.22437,0.341439 -0.49185,0.653341 -0.71412,0.996139 -0.49978,0.770756 -0.75358,1.696311 -1.4125,2.369042 -0.72407,1.059762 -1.44426,2.120384 -2.20791,3.151873 -0.70458,1.242228 -1.49376,2.427638 -2.26415,3.62374 -0.96725,1.458069 -1.70955,3.062872 -2.69047,4.51759 -1.12528,1.379952 -2.26436,2.741564 -3.38135,4.127751 0,0 -8.27978,3.537441 -8.27978,3.537441 z"
       inkscape:connector-curvature="0"
       inkscape:export-xdpi="265.94458"
       inkscape:export-ydpi="265.94458" />
    <path
       style="fill:#00ffff;stroke-width:0.29058149"
       id="path3782"
       d="m 151.48792,45.087816 c 1.52134,1.181738 2.75694,2.540223 3.74075,4.19204 0.91797,1.790028 1.76579,3.625928 2.51918,5.492284 0.56313,1.64291 1.20467,3.245263 1.92914,4.823324 0.77856,1.739529 1.4298,3.538255 2.02935,5.34652 0.96317,2.338752 1.8409,4.715978 2.88534,7.020607 0.87344,1.829603 1.46814,3.774221 2.26426,5.63599 0.64315,1.56333 1.53301,2.979272 2.94182,3.939981 1.29475,0.903522 2.74739,1.540038 4.18763,2.175727 1.30963,0.570884 2.71089,0.761759 4.123,0.844115 1.5432,-0.0388 3.07462,-0.321935 4.62284,-0.425266 1.95427,-0.282628 3.90717,-0.732774 5.59792,-1.781282 0,0 -6.95304,5.592674 -6.95304,5.592674 v 0 c -1.83293,0.832378 -3.80984,1.287222 -5.81122,1.484898 -1.58189,0.152494 -3.16331,0.482961 -4.7571,0.339846 -1.4717,-0.161334 -2.91241,-0.479336 -4.25747,-1.121511 -1.48522,-0.688017 -3.0091,-1.321041 -4.31917,-2.322158 -1.43431,-1.159462 -2.43379,-2.663587 -3.14694,-4.362123 -0.79901,-1.859686 -1.37065,-3.806894 -2.19987,-5.654495 -1.04157,-2.336828 -1.93063,-4.737331 -2.95558,-7.081286 -0.603,-1.772056 -1.27558,-3.524292 -2.02578,-5.239156 -0.73435,-1.592633 -1.38196,-3.213308 -1.94851,-4.872958 -0.69162,-1.837065 -1.52574,-3.630151 -2.42922,-5.370691 -0.9467,-1.564136 -2.13256,-2.843471 -3.6618,-3.867945 0,0 7.62447,-4.789135 7.62447,-4.789135 z"
       inkscape:connector-curvature="0"
       inkscape:export-xdpi="265.94458"
       inkscape:export-ydpi="265.94458" />
    <path
       style="fill:#00ffff;stroke-width:0.29058149"
       id="path3733-0-3-0"
       d="m 197.1224,82.005409 c 1.16899,0.939299 2.56791,1.420326 4.01798,1.710333 0.58792,0.114812 1.18197,0.156919 1.71226,-0.179588 0.14581,-0.09247 0.538,-0.428201 0.38703,-0.344349 -7.17482,3.985029 -9.23345,6.245443 -6.98934,3.852194 0.55267,-0.928184 0.44669,-1.887603 -0.51651,-2.414933 -1.02988,-0.338044 -2.1082,-0.468024 -3.09633,0.02284 2.4374,-1.365731 4.87482,-2.731462 7.31222,-4.097205 -0.19096,0.145915 -1.0392,0.594082 -0.44494,0.736692 0.549,0.06326 1.1759,0.291808 1.71345,0.05162 0.12961,-0.05788 0.4674,-0.32101 0.34338,-0.251918 -2.47731,1.380173 -4.93735,2.79112 -7.40602,4.18668 0.75486,-0.578619 0.56845,-0.680801 -0.19575,-0.828901 -0.72122,-0.121655 -1.44786,-0.161093 -2.11025,0.210789 -0.16632,0.09335 -0.62522,0.435131 -0.45868,0.342141 2.42905,-1.356286 4.83349,-2.756184 7.25023,-4.134282 -0.41005,0.05403 -1.21403,1.630862 -0.43214,1.484332 0.41706,-0.250974 0.20972,-0.100381 0.61226,-0.464904 0,0 -7.08683,5.559517 -7.08683,5.559517 v 0 c -0.70522,0.04712 -0.35065,0.08479 -1.06143,-0.13245 -1.06422,-0.856622 -1.06462,-1.936026 -0.36044,-3.071155 3.22967,-1.937914 6.90576,-6.09705 11.1138,-4.834039 1.03907,0.502981 1.65942,1.369443 1.09362,2.512788 -2.99239,1.748475 -6.78688,6.246446 -10.62599,4.219057 -3.47331,-3.200464 6.95708,-6.373274 7.85828,-6.976604 1.23012,-0.161389 2.48268,-0.0066 3.56599,0.633466 1.13869,0.928635 1.57028,2.165364 1.16025,3.612235 -1.42662,3.408749 -0.15117,0.654827 -8.24449,5.42045 -0.71743,0.422446 -1.71758,0.09972 -2.45712,-0.02153 -1.53998,-0.41797 -2.99447,-1.050634 -4.27896,-2.014117 0,0 7.62447,-4.789131 7.62447,-4.789131 z"
       inkscape:connector-curvature="0"
       inkscape:export-xdpi="265.94458"
       inkscape:export-ydpi="265.94458" />
  </g>
</svg>
